<svg width="34" height="34" viewBox="0 0 34 34" fill="none" xmlns="http://www.w3.org/2000/svg">
<path d="M17 1C8.17691 1 1 8.17779 1 17.0002C1 25.8226 8.17691 33 17 33C25.8226 33 33 25.8226 33 17.0002C33 8.17787 25.8226 1 17 1ZM17 30.4762C9.56905 30.4762 3.52383 24.4306 3.52383 17.0002C3.52383 9.56941 9.56905 3.52428 17 3.52428C24.431 3.52428 30.4763 9.56941 30.4763 17.0002C30.4763 24.4306 24.431 30.4762 17 30.4762Z" fill="#FF8787" stroke="#FF8787"/>
<path d="M24.619 10.6979L14.3063 21.217L9.19651 17.5127C8.54813 17.0426 7.64081 17.1879 7.17028 17.837C6.70074 18.4871 6.84584 19.3949 7.49471 19.8655L13.6163 24.3031C13.8718 24.4884 14.1699 24.5789 14.467 24.5789C14.8451 24.5789 15.2209 24.4318 15.5023 24.1442L26.6897 12.7329C27.2511 12.1605 27.2428 11.241 26.6702 10.6789C26.0995 10.1173 25.1805 10.1256 24.619 10.6979Z" fill="#FF8787" stroke="#FF8787"/>
</svg>
